<svg xmlns="http://www.w3.org/2000/svg" width="65" height="65" viewBox="0 0 65 65">
  <g id="Group_5" data-name="Group 5" transform="translate(-148 -923)">
    <circle id="Ellipse_4" data-name="Ellipse 4" cx="32.5" cy="32.5" r="32.5" transform="translate(148 923)" fill="#24272e"/>
    <g id="logotype-with-letter-a" transform="translate(158.279 934.185)">
      <path id="Path_1" data-name="Path 1" d="M18.492,22.808c1.515-.077,5.367-.4,5.367-.4v-6.8l-5.769,6.486S16.968,22.882,18.492,22.808ZM35.75,20.09s-1.515-1.2-1.439-5.524.164-8.007.164-8.007-.641-12.01-12.092-3.524L3.648,24.9S-3,35.3,10.858,37.861c3.522-.238,6.963-2.4,9.285,1.522.881,1.522,4.084,6.09,11.208,2.167,1.044-.8,2.483-2.4,2.56-6.808.164-1.681-.164-10.07,1.844-10.2,0,0,2.479-2.933,0-4.452Zm-4.686,3.124c-1.726.22-2.382.439-2.562.4,0,1.065.079,9.945.079,12.727-2.483,2.726-5.043,0-5.043,0s-.155-6.808-.077-11.636c-9.214,1.069-12.81,5.953-13.617,6.674A2.427,2.427,0,0,1,7.762,30.9c-1.121-.317,0-2,0-2L24.658,8.88c3.2-2.322,3.6,1.038,3.6,1.038v12.49s1.279,0,2.718-.077C32.425,22.808,31.063,23.214,31.063,23.214Z" transform="translate(0 0)" fill="#fff"/>
    </g>
  </g>
</svg>
