<svg xmlns="http://www.w3.org/2000/svg" width="78.892" height="31.329" viewBox="0 0 78.892 31.329">
  <g id="google-pay-primary-logo" transform="translate(0 0.024)">
    <g id="Group_6" data-name="Group 6" transform="translate(34.398 1.786)">
      <path id="Path_11" data-name="Path 11" d="M1043.815,68.25v9.18H1040.9V54.754h7.726a6.98,6.98,0,0,1,5,1.963,6.56,6.56,0,0,1,0,9.6,6.958,6.958,0,0,1-5,1.93l-4.812,0Zm0-10.7v7.918h4.884a3.946,3.946,0,0,0,2.958-6.639c-.026-.026-.05-.053-.076-.076a3.8,3.8,0,0,0-2.882-1.2Zm18.618,3.863a7.225,7.225,0,0,1,5.1,1.725,6.124,6.124,0,0,1,1.867,4.732V77.43h-2.786V75.276h-.126a5.565,5.565,0,0,1-4.815,2.66,6.25,6.25,0,0,1-4.289-1.52,4.855,4.855,0,0,1-1.725-3.8,4.609,4.609,0,0,1,1.821-3.83,7.677,7.677,0,0,1,4.861-1.424,8.619,8.619,0,0,1,4.273.948v-.668a3.317,3.317,0,0,0-1.2-2.578A4.124,4.124,0,0,0,1062.6,64a4.464,4.464,0,0,0-3.863,2.059l-2.564-1.616a7.13,7.13,0,0,1,6.262-3.037Zm-3.771,11.272a2.332,2.332,0,0,0,.965,1.9,3.554,3.554,0,0,0,2.264.76,4.655,4.655,0,0,0,3.278-1.362,4.256,4.256,0,0,0,1.447-3.2,5.952,5.952,0,0,0-3.8-1.087,4.92,4.92,0,0,0-2.961.856,2.563,2.563,0,0,0-1.193,2.132Zm26.731-10.767-9.726,22.356h-3.007l3.609-7.822-6.4-14.534h3.166l4.623,11.147h.063l4.5-11.147Z" transform="translate(-1040.9 -54.752)" fill="#5f6368"/>
    </g>
    <path id="Path_12" data-name="Path 12" d="M406.711,325.65a15.487,15.487,0,0,0-.225-2.65H394.2v5.016h7.036a6.026,6.026,0,0,1-2.6,3.959v3.258h4.2a12.732,12.732,0,0,0,3.876-9.583Z" transform="translate(-381.173 -312.349)" fill="#4285f4"/>
    <path id="Path_13" data-name="Path 13" d="M53.639,480.235a12.457,12.457,0,0,0,8.635-3.146l-4.2-3.258A7.9,7.9,0,0,1,46.326,469.7H42v3.358A13.024,13.024,0,0,0,53.639,480.235Z" transform="translate(-40.612 -454.201)" fill="#34a853"/>
    <path id="Path_14" data-name="Path 14" d="M5.714,225.544a7.805,7.805,0,0,1,0-4.987V217.2H1.388a13.026,13.026,0,0,0,0,11.7Z" transform="translate(0 -210.046)" fill="#fbbc04"/>
    <path id="Path_15" data-name="Path 15" d="M53.639,5.135a7.076,7.076,0,0,1,5,1.953l3.721-3.718A12.533,12.533,0,0,0,53.639-.023,13.03,13.03,0,0,0,42,7.154l4.326,3.358A7.792,7.792,0,0,1,53.639,5.135Z" transform="translate(-40.612 0)" fill="#ea4335"/>
  </g>
</svg>
