<?xml version="1.0" encoding="utf-8"?>
<!-- Generator: Adobe Illustrator 25.0.0, SVG Export Plug-In . SVG Version: 6.00 Build 0)  -->
<svg version="1.1" id="Layer_1" xmlns="http://www.w3.org/2000/svg" xmlns:xlink="http://www.w3.org/1999/xlink" x="0px" y="0px"
	 viewBox="0 0 150 55" style="enable-background:new 0 0 150 55;" xml:space="preserve">
<style type="text/css">
	.st0{enable-background:new    ;}
	.st1{fill:#FFFFFF;}
	.st2{fill:#6600FF;}
</style>
<g id="Group_118" transform="translate(-137 -7556)">
	<g class="st0">
		<path class="st1" d="M162.56,7567.5v31.5h-6.75v-2.12c-1.48,1.71-3.69,2.75-6.7,2.75c-5.89,0-10.75-5.17-10.75-11.88
			c0-6.7,4.86-11.88,10.75-11.88c3.01,0,5.22,1.04,6.7,2.75v-11.12H162.56z M155.81,7587.75c0-3.37-2.25-5.49-5.35-5.49
			s-5.35,2.12-5.35,5.49c0,3.38,2.25,5.49,5.35,5.49S155.81,7591.12,155.81,7587.75z"/>
		<path class="st1" d="M166.83,7570.47c0-2.2,1.85-4.05,4.05-4.05c2.21,0,4.05,1.85,4.05,4.05c0,2.21-1.84,4.05-4.05,4.05
			C168.68,7574.52,166.83,7572.68,166.83,7570.47z M167.51,7576.5h6.75v22.5h-6.75V7576.5z"/>
		<path class="st1" d="M203.42,7587.75c0,6.71-4.86,11.88-10.75,11.88c-3.01,0-5.22-1.04-6.7-2.75V7608h-6.75v-31.5h6.75v2.12
			c1.48-1.71,3.69-2.75,6.7-2.75C198.56,7575.87,203.42,7581.05,203.42,7587.75z M196.67,7587.75c0-3.37-2.25-5.49-5.35-5.49
			c-3.1,0-5.35,2.12-5.35,5.49c0,3.38,2.25,5.49,5.35,5.49C194.42,7593.24,196.67,7591.12,196.67,7587.75z"/>
		<path class="st1" d="M215.34,7582.98v7.96c0,1.93,1.66,2.12,4.63,1.93v6.12c-8.82,0.9-11.38-1.75-11.38-8.05v-7.96h-3.6v-6.48h3.6
			v-4.27l6.75-2.03v6.3h4.63v6.48H215.34z"/>
		<path class="st1" d="M245.85,7585.19V7599h-6.75v-12.82c0-2.79-1.75-4.09-3.91-4.09c-2.47,0-4.19,1.44-4.19,4.63V7599h-6.75v-22.5
			H231v2.12c1.21-1.67,3.46-2.75,6.44-2.75C241.98,7575.87,245.85,7579.11,245.85,7585.19z"/>
		<path class="st1" d="M249.36,7587.75c0-6.7,5.08-11.88,11.92-11.88c4.37,0,8.23,2.29,10.17,5.76l-5.89,3.42
			c-0.77-1.58-2.38-2.52-4.37-2.52c-2.92,0-5.08,2.12-5.08,5.22c0,3.11,2.16,5.22,5.08,5.22c1.98,0,3.64-0.95,4.37-2.52l5.89,3.38
			c-1.94,3.51-5.76,5.8-10.17,5.8C254.45,7599.63,249.36,7594.46,249.36,7587.75z"/>
	</g>
	<circle id="Ellipse_52" class="st2" cx="283" cy="7597" r="4"/>
</g>
</svg>
