<svg xmlns="http://www.w3.org/2000/svg" width="112.252" height="27.41" viewBox="0 0 112.252 27.41">
  <g id="paypal-2" transform="translate(0)">
    <path id="Path_16" data-name="Path 16" d="M45.243,6.749H39.032a.863.863,0,0,0-.853.728L35.666,23.406a.518.518,0,0,0,.512.6h2.966A.863.863,0,0,0,40,23.274l.678-4.3a.863.863,0,0,1,.852-.729h1.966c4.092,0,6.453-1.98,7.07-5.9a4.784,4.784,0,0,0-.792-4.01c-.883-1.037-2.449-1.586-4.528-1.586Zm.717,5.818C45.62,14.8,43.917,14.8,42.271,14.8h-.937l.658-4.163A.518.518,0,0,1,42.5,10.2h.43c1.122,0,2.18,0,2.727.639A2.07,2.07,0,0,1,45.96,12.567Zm17.852-.072H60.837a.518.518,0,0,0-.511.437l-.132.832-.208-.3c-.644-.935-2.08-1.247-3.513-1.247A6.84,6.84,0,0,0,49.831,18.2a5.615,5.615,0,0,0,1.108,4.57,4.654,4.654,0,0,0,3.747,1.513,5.692,5.692,0,0,0,4.117-1.7l-.133.827a.518.518,0,0,0,.51.6h2.679a.863.863,0,0,0,.853-.729l1.608-10.181a.516.516,0,0,0-.51-.6Zm-4.146,5.789a3.315,3.315,0,0,1-3.356,2.84,2.3,2.3,0,0,1-2.464-2.892,3.33,3.33,0,0,1,3.333-2.863,2.509,2.509,0,0,1,1.984.81,2.575,2.575,0,0,1,.5,2.1Zm19.989-5.789H76.665a.867.867,0,0,0-.715.379l-4.123,6.073L70.08,13.111a.866.866,0,0,0-.828-.616H66.314a.518.518,0,0,0-.491.685l3.293,9.662-3.1,4.37a.518.518,0,0,0,.422.817h2.986a.862.862,0,0,0,.709-.371l9.942-14.351a.518.518,0,0,0-.425-.813Z" transform="translate(-3.27 -0.619)" fill="#253b80"/>
    <path id="Path_17" data-name="Path 17" d="M94.024,6.749H87.812a.863.863,0,0,0-.852.728L84.447,23.406a.517.517,0,0,0,.51.6h3.188a.6.6,0,0,0,.6-.51l.713-4.515a.863.863,0,0,1,.852-.729h1.966c4.093,0,6.453-1.98,7.071-5.9a4.781,4.781,0,0,0-.793-4.01C97.668,7.3,96.1,6.749,94.024,6.749Zm.717,5.818C94.4,14.8,92.7,14.8,91.052,14.8h-.936l.659-4.163a.516.516,0,0,1,.51-.437h.43c1.121,0,2.18,0,2.727.639a2.07,2.07,0,0,1,.3,1.731Zm17.851-.072h-2.973a.515.515,0,0,0-.51.437l-.132.832-.209-.3c-.644-.935-2.079-1.247-3.512-1.247A6.84,6.84,0,0,0,98.615,18.2a5.618,5.618,0,0,0,1.107,4.57,4.657,4.657,0,0,0,3.747,1.513,5.692,5.692,0,0,0,4.117-1.7l-.133.827a.518.518,0,0,0,.512.6h2.679a.863.863,0,0,0,.852-.729L113.1,13.092a.519.519,0,0,0-.513-.6Zm-4.146,5.789a3.314,3.314,0,0,1-3.356,2.84,2.3,2.3,0,0,1-2.464-2.892,3.331,3.331,0,0,1,3.333-2.863,2.509,2.509,0,0,1,1.984.81A2.562,2.562,0,0,1,108.445,18.284Zm7.653-11.1-2.55,16.22a.517.517,0,0,0,.51.6h2.563a.862.862,0,0,0,.853-.729L119.99,7.347a.518.518,0,0,0-.51-.6h-2.87a.519.519,0,0,0-.51.438Z" transform="translate(-7.744 -0.619)" fill="#179bd7"/>
    <path id="Path_18" data-name="Path 18" d="M6.7,26.574l.475-3.017-1.058-.025H1.061L4.572,1.267a.287.287,0,0,1,.285-.243h8.52c2.828,0,4.78.589,5.8,1.75a3.991,3.991,0,0,1,.929,1.741,6.286,6.286,0,0,1,.006,2.4l-.011.07V7.6l.478.271a3.352,3.352,0,0,1,.967.738,3.434,3.434,0,0,1,.785,1.76,7.446,7.446,0,0,1-.112,2.554,8.994,8.994,0,0,1-1.046,2.891,5.947,5.947,0,0,1-1.658,1.817,6.725,6.725,0,0,1-2.233,1.007,11.134,11.134,0,0,1-2.79.322H13.83a1.994,1.994,0,0,0-1.972,1.683l-.05.272-.839,5.318-.038.2a.168.168,0,0,1-.053.114.141.141,0,0,1-.087.032Z" transform="translate(-0.097 -0.094)" fill="#253b80"/>
    <path id="Path_19" data-name="Path 19" d="M21.5,7.667q-.038.244-.087.5c-1.124,5.769-4.967,7.761-9.877,7.761h-2.5a1.214,1.214,0,0,0-1.2,1.028l-1.28,8.116-.362,2.3a.639.639,0,0,0,.631.739h4.433a1.067,1.067,0,0,0,1.054-.9l.044-.225.835-5.3.054-.291a1.066,1.066,0,0,1,1.054-.9h.663c4.3,0,7.658-1.744,8.641-6.79.411-2.108.2-3.868-.888-5.106A4.239,4.239,0,0,0,21.5,7.667Z" transform="translate(-0.568 -0.703)" fill="#179bd7"/>
    <path id="Path_20" data-name="Path 20" d="M20.493,7.11A8.862,8.862,0,0,0,19.4,6.868a13.882,13.882,0,0,0-2.2-.161H10.519a1.065,1.065,0,0,0-1.053.9l-1.421,9L8,16.868A1.213,1.213,0,0,1,9.2,15.84h2.5c4.909,0,8.753-1.994,9.877-7.761.034-.171.062-.337.087-.5a5.99,5.99,0,0,0-.924-.39q-.125-.042-.252-.079Z" transform="translate(-0.734 -0.615)" fill="#222d65"/>
    <path id="Path_21" data-name="Path 21" d="M8.732,6.993a1.062,1.062,0,0,1,1.053-.9h6.678a13.882,13.882,0,0,1,2.2.161,8.862,8.862,0,0,1,1.345.321,6.08,6.08,0,0,1,.924.39,5.448,5.448,0,0,0-1.155-4.9C18.509.619,16.216,0,13.281,0H4.761a1.218,1.218,0,0,0-1.2,1.029L.009,23.523a.732.732,0,0,0,.722.847h5.26L7.312,15.99Z" transform="translate(0)" fill="#253b80"/>
  </g>
</svg>
